<?xml version="1.0" encoding="UTF-8" standalone="no"?>
<!-- Created with Inkscape (http://www.inkscape.org/) -->

<svg
   xmlns:dc="http://purl.org/dc/elements/1.1/"
   xmlns:cc="http://creativecommons.org/ns#"
   xmlns:rdf="http://www.w3.org/1999/02/22-rdf-syntax-ns#"
   xmlns:svg="http://www.w3.org/2000/svg"
   xmlns="http://www.w3.org/2000/svg"
   xmlns:sodipodi="http://sodipodi.sourceforge.net/DTD/sodipodi-0.dtd"
   xmlns:inkscape="http://www.inkscape.org/namespaces/inkscape"
   width="64px"
   height="64px"
   id="svg5342"
   version="1.1"
   inkscape:version="0.48.5 r10040"
   sodipodi:docname="logo.svg">
  <defs
     id="defs5344" />
  <sodipodi:namedview
     id="base"
     pagecolor="#ffffff"
     bordercolor="#666666"
     borderopacity="1.0"
     inkscape:pageopacity="0.0"
     inkscape:pageshadow="2"
     inkscape:zoom="11"
     inkscape:cx="24.198518"
     inkscape:cy="20.747035"
     inkscape:current-layer="layer1"
     showgrid="true"
     inkscape:document-units="px"
     inkscape:grid-bbox="true"
     inkscape:window-width="1920"
     inkscape:window-height="1057"
     inkscape:window-x="0"
     inkscape:window-y="0"
     inkscape:window-maximized="1" />
  <metadata
     id="metadata5347">
    <rdf:RDF>
      <cc:Work
         rdf:about="">
        <dc:format>image/svg+xml</dc:format>
        <dc:type
           rdf:resource="http://purl.org/dc/dcmitype/StillImage" />
      </cc:Work>
    </rdf:RDF>
  </metadata>
  <g
     id="layer1"
     inkscape:label="Layer 1"
     inkscape:groupmode="layer">
    <path
       d="M 54.014135,54.13595 22.791426,84.810618 53.466095,116.03333 84.688804,85.35866 54.014135,54.13595 z M 24.725719,84.827744 38.873509,70.928285 47.820447,80.035071 33.672657,93.93453 24.725719,84.827744 z M 56.325169,73.597098 65.271628,82.703397 51.155061,96.572181 42.208122,87.465394 56.32469,73.59661 z m -21.693928,21.313143 6.601651,-6.485775 8.946459,9.106299 -6.601651,6.485775 -8.946459,-9.106299 z m 32.99977,5.289339 -14.14779,13.89945 -8.946938,-9.10678 14.14779,-13.89946 8.946938,9.10679 z m 15.1235,-14.858046 -14.14779,13.899459 -8.946938,-9.106787 14.14779,-13.899459 8.946938,9.106787 z M 72.84899,75.259038 66.247339,81.744813 57.3004,72.638026 l 6.601651,-6.485775 8.946939,9.106787 z m -9.905043,-10.082009 -14.14779,13.899459 -8.946938,-9.106786 14.14779,-13.89946 8.946938,9.106787 z"
       id="path3207"
       inkscape:connector-curvature="0"
       style="fill:none" />
    <path
       style="fill:#0c7bb3;fill-opacity:1;stroke:none"
       d="m 24.221896,22.608437 -3.467252,-3.522929 4.554382,-4.471095 c 2.504925,-2.459054 5.005523,-4.907415 5.556892,-5.440761 l 1.002492,-0.969715 3.470747,3.520152 3.470748,3.520154 -5.506144,5.449607 c -3.028378,2.997285 -5.530536,5.446921 -5.560411,5.443577 -0.02985,-0.0033 -1.614533,-1.591336 -3.521532,-3.528938 z"
       id="path4197"
       inkscape:connector-curvature="0" />
    <path
       style="fill:#0c7bb3;fill-opacity:1;stroke:none"
       d="m 12.285976,34.330823 -3.465087,-3.523976 4.387643,-4.304544 c 2.413203,-2.3675 4.911789,-4.815482 5.55244,-5.43993 l 1.164824,-1.135358 3.447581,3.506468 c 1.896161,1.928567 3.453994,3.536559 3.461805,3.57336 0.01521,0.07196 -10.892649,10.798914 -11.012251,10.829588 -0.03948,0.01013 -1.631078,-1.567389 -3.536887,-3.505562 l 0,0 z"
       id="path4199"
       inkscape:connector-curvature="0" />
    <path
       style="fill:#0c7bb3;fill-opacity:1;stroke:none"
       d="m 26.085389,36.40947 -3.448767,-3.509144 3.394481,-3.345667 c 1.866961,-1.840123 4.347798,-4.285994 5.512962,-5.435284 l 2.118469,-2.089628 2.385968,2.41347 c 1.312304,1.32739 2.88514,2.926276 3.495236,3.553039 l 1.109302,1.139533 -5.482596,5.372133 c -3.015419,2.954681 -5.517192,5.380819 -5.559477,5.391432 -0.04229,0.01053 -1.628813,-1.559823 -3.525629,-3.489857 l 0,0 z"
       id="path4201"
       inkscape:connector-curvature="0" />
    <path
       style="fill:#ffffff;fill-opacity:1;stroke:none"
       d="m 38.036784,24.730105 c -1.870977,-1.915776 -3.401835,-3.519602 -3.401836,-3.564128 1.1e-5,-0.04453 1.128403,-1.185948 2.50757,-2.53649 l 2.507595,-2.455503 3.150261,3.170802 c 1.732645,1.743942 3.29927,3.344488 3.481407,3.556758 l 0.331131,0.385969 -2.534507,2.462885 c -1.393974,1.354591 -2.558184,2.462888 -2.587131,2.462888 -0.02895,0 -1.583452,-1.567426 -3.454458,-3.483176 z"
       id="path4203"
       inkscape:connector-curvature="0" />
    <path
       style="fill:#0c7bb3;fill-opacity:1;stroke:none"
       d="m 39.852225,38.496297 -3.42996,-3.50001 5.509482,-5.444717 5.509483,-5.444718 1.01174,0.995073 c 0.556458,0.547288 2.130664,2.14814 3.498236,3.557446 l 2.48651,2.562362 -5.486178,5.387294 c -3.01741,2.963002 -5.527395,5.387307 -5.577784,5.387307 -0.0504,2e-6 -1.635092,-1.575011 -3.521557,-3.500029 z"
       id="path4205"
       inkscape:connector-curvature="0" />
    <path
       style="fill:#0c7bb3;fill-opacity:1;stroke:none"
       d="m 27.912808,50.217311 -3.430368,-3.500013 5.076251,-5.020166 c 2.791942,-2.761089 5.286739,-5.199037 5.543996,-5.417662 l 0.467743,-0.397498 0.978173,0.968013 c 0.537992,0.53241 2.096899,2.120941 3.464272,3.530038 l 2.486111,2.562007 -5.475349,5.387656 c -3.011434,2.963213 -5.521498,5.387655 -5.57791,5.387655 -0.05641,0 -1.646224,-1.57501 -3.532925,-3.500022 z"
       id="path4207"
       inkscape:connector-curvature="0" />
    <path
       style="fill:#ffffff;fill-opacity:1;stroke:none"
       d="m 20.116148,42.281071 -3.434936,-3.513732 2.497565,-2.482435 c 1.373662,-1.365338 2.535583,-2.48246 2.582105,-2.482436 0.0465,2e-6 1.642699,1.580944 3.547111,3.513202 l 3.462571,3.513202 -2.548468,2.478338 c -1.401659,1.363092 -2.576043,2.480422 -2.609745,2.482971 -0.03372,0.0024 -1.606997,-1.576556 -3.496206,-3.509107 z"
       id="path4209"
       inkscape:connector-curvature="0" />
  </g>
</svg>
